<svg width="512" height="512" viewBox="0 0 512 512" fill="none" xmlns="http://www.w3.org/2000/svg">
  <defs>
    <linearGradient id="bagGrad" x1="0%" y1="0%" x2="100%" y2="100%">
      <stop offset="0%" style="stop-color:#4f46e5;stop-opacity:1" /> <stop offset="50%" style="stop-color:#9333ea;stop-opacity:1" /> <stop offset="100%" style="stop-color:#f43f5e;stop-opacity:1" /> </linearGradient>
    
    <linearGradient id="rpGrad" x1="0%" y1="0%" x2="0%" y2="100%">
      <stop offset="0%" style="stop-color:#ffffff;stop-opacity:1" />
      <stop offset="100%" style="stop-color:#818cf8;stop-opacity:1" /> </linearGradient>

    <filter id="innerShadow" x="-20%" y="-20%" width="140%" height="140%">
      <feGaussianBlur in="SourceAlpha" stdDeviation="15"/>
      <feOffset dx="0" dy="15" result="offsetblur"/>
      <feComponentTransfer><feFuncA type="linear" slope="0.4"/></feComponentTransfer>
      <feMerge><feMergeNode/><feMergeNode in="SourceGraphic"/></feMerge>
    </filter>
  </defs>

  <rect width="512" height="512" rx="128" fill="#0f172a"/>
  
  <g filter="url(#innerShadow)">
    <path d="M192 128C192 128 128 128 128 192V416C128 416 128 480 192 480H320C320 480 384 480 384 416V192C384 128 320 128 320 128H192Z" fill="url(#bagGrad)"/>
    
    <path d="M192 128V112C192 112 192 80 224 80H288C288 80 320 80 320 112V128H192Z" fill="#1e293b"/> <rect x="192" y="112" width="128" height="16" rx="8" fill="#334155"/> </g>

  <text x="50%" y="60%" text-anchor="middle" font-family="Inter, Arial" font-size="160" font-weight="900" dy=".3em" fill="url(#rpGrad)">Rp</text>
  
  <circle cx="140" cy="140" r="120" fill="white" fill-opacity="0.05" />
</svg>
