<?xml version="1.0" encoding="UTF-8"?>
<!DOCTYPE svg PUBLIC "-//W3C//DTD SVG 1.1//EN" "http://www.w3.org/Graphics/SVG/1.1/DTD/svg11.dtd">
<!-- Creator: CorelDRAW -->
<svg xmlns="http://www.w3.org/2000/svg" xml:space="preserve" width="512px" height="512px" version="1.1" style="shape-rendering:geometricPrecision; text-rendering:geometricPrecision; image-rendering:optimizeQuality; fill-rule:evenodd; clip-rule:evenodd"
viewBox="0 0 512 512"
 xmlns:xlink="http://www.w3.org/1999/xlink"
 xmlns:xodm="http://www.corel.com/coreldraw/odm/2003">
 <defs>
  <style type="text/css">
   <![CDATA[
    .str2 {stroke:#5E4139;stroke-width:0.14;stroke-miterlimit:22.9256}
    .str1 {stroke:#C97939;stroke-width:0.14;stroke-miterlimit:22.9256}
    .str0 {stroke:#F3BD81;stroke-width:0.14;stroke-miterlimit:22.9256}
    .fil6 {fill:#5E4139}
    .fil5 {fill:#8C6238}
    .fil4 {fill:#C97939}
    .fil2 {fill:#E79F5F}
    .fil1 {fill:#F3BD81}
    .fil3 {fill:#F3BD81}
    .fil0 {fill:url(#id0)}
   ]]>
  </style>
  <linearGradient id="id0" gradientUnits="userSpaceOnUse" x1="125.07" y1="386.04" x2="411.78" y2="53.17">
   <stop offset="0" style="stop-opacity:1; stop-color:#6600CC"/>
   <stop offset="0.380392" style="stop-opacity:1; stop-color:#7F00E5"/>
   <stop offset="1" style="stop-opacity:1; stop-color:#9900FF"/>
  </linearGradient>
 </defs>
 <g id="Layer_x0020_1">
  <metadata id="CorelCorpID_0Corel-Layer"/>
  <rect class="fil0" width="512" height="512" rx="73.14" ry="73.14"/>
  <g id="_2322806102240">
   <path class="fil1" d="M272.02 287.08c2.17,-0.56 8.72,-0.76 11.21,-0.76 13.37,0 30.23,2.02 36.22,14.85 1.53,3.26 3.01,8.9 3.01,13.07 0,10.1 -5.19,15.18 -10.92,19.54 -2.77,2.1 -5.8,3.85 -9.53,5.28 -1.8,0.7 -3.65,1.22 -5.63,1.67 -2.04,0.46 -4.23,0.61 -6.22,1.09l-2.39 22.86c-3.13,0.06 -7.26,-0.42 -10.48,-0.66 -4.64,-0.34 -7.41,0.27 -7.41,-3.67l-0.06 -16.69 2.2 -56.58zm-46.17 34.89c-0.94,2 -1.69,11.03 -2.04,13.79 -0.79,6.16 -2.58,5.61 -10.24,4.93 -2.49,-0.22 -5.05,-0.14 -7.54,-0.39 -3.08,-0.32 -2.9,-1.86 -2.8,-4.99 0.15,-5.15 0.07,-10.31 0.26,-15.44 0.61,-16.94 1.61,-35.24 2.52,-52.38 0.15,-2.85 0.16,-4.38 3.09,-4.69 2.13,-0.23 5.3,0.04 7.57,0.12 13.46,0.45 34.9,1.94 44.57,10.3 1.15,0.99 2.39,2.83 3.25,4.67 2.69,5.75 0.92,14.06 -0.92,19.6 -1.59,4.77 -3.1,7.03 -6.26,9.39 -1.29,0.96 -3.53,2 -5.42,2.52 -1.73,0.48 -3.15,0.55 -4.86,0.98l-1.43 0.52 10.37 21.78c-1.24,0.42 -13.44,7.78 -18.75,8.76 -0.35,-1.16 -4.35,-8.22 -5.31,-10.1 -0.85,-1.68 -1.74,-3.4 -2.66,-5.07 -1.65,-3.01 -1.72,-4.53 -3.4,-4.3zm-54.05 -10.03c0,14.16 2.25,22.27 8.32,34.67 1.99,4.07 6.97,11.11 10.16,14.45 0.88,0.92 1.38,1.77 2.37,2.64 1.65,1.44 2.79,2.95 5.18,4.84 8.15,6.47 14.22,10.77 24.65,14.79 26.25,10.13 57.49,8.31 81.49,-6.62 2.08,-1.29 4.04,-2.5 5.9,-3.91 4.57,-3.48 6.76,-5.34 10.64,-9.18l4.66 -5.36c14.13,-17.21 19.56,-40.75 13.52,-62.77 -1.52,-5.56 -3.3,-9.61 -5.63,-14.38 -2.17,-4.44 -5.28,-8.78 -7.92,-12.13 -2.04,-2.59 -7.04,-8.05 -9.8,-10.22 -2.06,-1.62 -3.06,-2.61 -5.47,-4.34 -1.96,-1.41 -3.85,-2.71 -5.99,-4.03 -32.66,-20.22 -77.82,-16.52 -105.9,8.22 -6.99,6.15 -12.28,12.17 -17.75,21.91 -4.56,8.11 -8.43,20.49 -8.43,31.42z"/>
   <path class="fil2" d="M195.4 97.87c1.19,0.26 0.9,0.9 2.13,3.26 2.46,4.67 5.58,9.04 9.33,12.77 1.88,1.87 3.79,3.54 6.02,5.02 1.11,0.74 3.1,1.65 3.33,2.3 4.94,-3.31 11.7,-3.84 18.62,-4.03 12.35,-0.32 32.33,-1.12 44.02,-0.14 2.92,0.24 12.2,1.18 14.93,1.95 1.64,0.46 2.69,1.15 3.99,1.6 2.15,-0.89 4.69,-2.76 6.29,-4.03 2,-1.58 3.57,-3.2 5.16,-5.07 2.23,-2.62 6.48,-8.9 7.13,-13.44 -8.98,-1.55 -15.49,-4.59 -21.66,-10.23l-2.81 -2.61c-1.82,-1.79 -6.83,-5.59 -8.98,-7.09 -1.93,-1.36 -4.52,-2.64 -7.08,-3.56 -6,-2.15 -12.98,-1.76 -19.72,-1.78 -10.26,-0.03 -16.88,0.28 -25.31,6.61 -2.08,1.56 -3.99,3.16 -5.99,4.87 -4.04,3.47 -7.35,6.56 -12.33,9.17 -9.1,4.77 -15.68,3.74 -17.07,4.43z"/>
   <path class="fil3 str0" d="M255.44 439.43l0.07 -0.32 -33.13 -2.06c-17.46,-0.77 -47.28,-1.79 -63.34,-6.78 -4.16,-1.3 -8.75,-3.38 -12.15,-5.37 -7.14,-4.18 -10.42,-7.15 -15.54,-12.83 -3.71,-4.12 -6.78,-9.79 -8.8,-15.19 -3.07,-8.26 -4.15,-21.77 -3.78,-31.1 1.08,-27.32 11.86,-58.07 21.97,-83.04 4.3,-10.63 11.25,-25.68 16.69,-35.68 2.06,-3.79 4.17,-7.67 6.15,-11.38 2.07,-3.86 4.21,-7.32 6.33,-11.19 2,-3.67 4.2,-7.57 6.05,-11.28 1.85,-3.72 4.27,-7.71 6.18,-11.35 8.02,-15.35 20.71,-25.62 34.27,-35.61 11.17,-8.24 25.66,-11.82 40.06,-12.61l-0.91 -0.33 -2.22 -0.16c-11.9,0.86 -20.3,0.73 -32.13,4.32 -11.83,3.59 -21.88,11.35 -31.06,19.24l-10.32 10.33c-6.62,7.33 -10.34,14.67 -15.04,23.37 -2.14,3.97 -4.19,8.03 -6.44,11.91l-6.51 11.65c-15.39,28.37 -22.5,42.97 -33.7,75.44 -6.43,18.66 -12.07,39.46 -12.08,60.96 -0.01,21.19 5.24,38.51 22.14,50.69 17.53,12.63 36.38,13.44 58,14.86 11.45,0.75 23.15,1.18 34.63,1.82 11.37,0.64 23.25,1.46 34.61,1.69z"/>
   <path class="fil4 str1" d="M255.56 153.31c1.73,-0.1 6.2,0.57 8.1,0.79 6.92,0.83 15.5,2.38 21.74,4.8 16.1,6.26 25.09,21.7 35.56,34.33 5.44,6.57 5.38,13.55 9.71,21.04 1.13,1.96 3.96,4.91 4.98,6.92 0.99,1.98 0.08,5.77 1.01,7.74 1.83,3.86 5.36,7.24 7.35,11.14 8.06,15.74 23.19,25.81 29.9,42.34 5.36,13.19 9.47,25.96 13.23,39.77 4.45,16.3 7.81,26.48 8.21,44.85 0.46,20.4 -3.35,38.8 -18.63,51.96 -5.7,4.91 -13.69,9.81 -22.93,12.55 -18.39,5.43 -59.84,5.81 -81.43,6.76l-16.85 0.81 -0.07 0.32 10.26 0.48c0.82,-0.13 0.56,0.29 0.58,-0.88 5.75,-0.01 11.81,-0.48 17.59,-0.71 5.74,-0.23 11.61,-0.47 17.33,-0.69 11.54,-0.45 22.99,-0.79 34.46,-1.7 25.5,-2.04 38.67,-5 53.7,-18.49 2.46,-2.2 6.36,-7.04 8.14,-10.01 2.3,-3.84 4.23,-7.62 5.67,-12.49 2.81,-9.56 3.49,-22.47 2.85,-32.92 -0.67,-10.88 -2.67,-20.77 -5.42,-30.77 -8.72,-31.74 -14.52,-48.99 -29.44,-79.06 -6.23,-12.55 -18.01,-36.32 -24.74,-47.47 -2.31,-3.84 -4.77,-7.46 -7.27,-10.88 -3.37,-4.58 -5.06,-6.18 -8.2,-9.96 -1.44,-1.74 -7.36,-7.46 -9.2,-8.96 -10.7,-8.69 -19.68,-15.62 -35.17,-18.86 -5.26,-1.09 -10.3,-1.87 -15.76,-2.39 -4.19,-0.39 -13.49,-1.1 -17.48,-0.52l2.22 0.16z"/>
   <path class="fil5" d="M222.61 277.82c2.65,0 6.59,0.41 9.29,0.72 13.65,1.54 11.77,10.42 4.57,15.22 -3.42,2.28 -13.84,5.98 -15.29,2.39 -0.75,-1.86 0.97,-15.55 1.43,-18.33zm-16.64 58.12l0.08 1.59c4.66,0.49 9.54,1.25 14.16,0.57 0.48,-0.72 0.78,-3.98 0.93,-5.01 0.25,-1.71 0.5,-3.5 0.76,-5.27 0.5,-3.48 0.97,-7.05 1.53,-10.57 3.27,-1.59 4.48,0.44 5.59,2.57 2.79,5.36 7.42,13.48 9.7,18.4l13.83 -6.42c-0.45,-1.47 -4.61,-9.57 -5.72,-12.03 -1.27,-2.83 -5.6,-9.23 -5.77,-11.95 3.57,0 6.98,0.07 10.2,-0.92 3.02,-0.93 5.33,-2.68 6.67,-4.41 3.13,-4.04 5.27,-11.08 5.27,-17.47 0,-6 -3.15,-9.62 -6.52,-11.84 -3.67,-2.43 -8.67,-3.73 -13.52,-4.85 -11.09,-2.55 -22.27,-2.77 -34.06,-2.77 -1.09,21.87 -3.13,49 -3.13,70.38z"/>
   <path class="fil6 str2" d="M171.8 311.94c0,-10.93 3.87,-23.31 8.43,-31.42 5.47,-9.74 10.76,-15.76 17.75,-21.91 28.08,-24.74 73.24,-28.44 105.9,-8.22 2.14,1.32 4.03,2.62 5.99,4.03 2.41,1.73 3.41,2.72 5.47,4.34 2.76,2.17 7.76,7.63 9.8,10.22 2.64,3.35 5.75,7.69 7.92,12.13 2.33,4.77 4.11,8.82 5.63,14.38 6.04,22.02 0.61,45.56 -13.52,62.77l-4.66 5.36c-3.88,3.84 -6.07,5.7 -10.64,9.18 -1.86,1.41 -3.82,2.62 -5.9,3.91 -24,14.93 -55.24,16.75 -81.49,6.62 -10.43,-4.02 -16.5,-8.32 -24.65,-14.79 -2.39,-1.89 -3.53,-3.4 -5.18,-4.84 -0.99,-0.87 -1.49,-1.72 -2.37,-2.64 -3.19,-3.34 -8.17,-10.38 -10.16,-14.45 -6.07,-12.4 -8.32,-20.51 -8.32,-34.67zm-4.64 -0.42l0 3.76c0,11.31 4.03,24.54 8.64,32.94 4.6,8.38 12.43,18.84 19.74,24.29 4.15,3.1 4.96,4.26 10.52,7.63 4.45,2.69 8.64,4.86 13.86,7.01 12.26,5.05 24.16,7.01 38.27,7.01 24.6,0 47.54,-10.92 60.64,-22.83 2.24,-2.03 5.96,-5.47 7.84,-7.82l2.4 -2.81c9.8,-12.04 16.92,-29.13 16.92,-45.84 0,-13.21 -2.84,-25.3 -8.54,-35.65 -2.64,-4.79 -5.13,-8.64 -8.21,-12.44 -9.56,-11.85 -21.69,-20.76 -35.87,-26.52 -23.22,-9.44 -49.91,-9.48 -73.22,-0.16 -4.95,1.98 -9.66,4.3 -13.79,6.88 -3.64,2.27 -5.96,3.84 -9.2,6.44l-2.84 2.37c-15.07,12.82 -27.16,33.96 -27.16,55.74z"/>
   <path class="fil5" d="M288.29 303.23c1.72,-0.63 2.72,-1.04 4.75,-1.04 3.25,0 6.99,1.46 8.99,3.69 4.55,5.06 0.35,12.77 -6.43,14.88 -3.4,1.06 -8.3,1.68 -8.3,-2.77 -0.16,-1.07 0.8,-12.7 0.99,-14.76zm-0.68 36.15c4.68,-0.75 8.79,-1 13.27,-2.49 5.55,-1.84 8.52,-4.06 12.2,-7.62 1.59,-1.53 3.7,-5.13 4.57,-7.33 1.63,-4.19 2.02,-9.01 1.07,-13.75 -1.82,-9.08 -6.83,-14.03 -15.13,-16.61 -10.84,-3.37 -17.82,-2.4 -28.5,-2.23 -0.71,11.78 -1.48,23.44 -1.85,35.32 -0.38,12.17 -0.49,24.26 -0.49,36.52l12.47 0.73c0.67,-4.45 1.17,-12.06 1.66,-17.08 0.11,-1.03 0.3,-4.73 0.73,-5.46z"/>
   <path class="fil6 str2" d="M205.97 335.94c0,-21.38 2.04,-48.51 3.13,-70.38 11.79,0 22.97,0.22 34.06,2.77 4.85,1.12 9.85,2.42 13.52,4.85 3.37,2.22 6.52,5.84 6.52,11.84 0,6.39 -2.14,13.43 -5.27,17.47 -1.34,1.73 -3.65,3.48 -6.67,4.41 -3.22,0.99 -6.63,0.92 -10.2,0.92 0.17,2.72 4.5,9.12 5.77,11.95 1.11,2.46 5.27,10.56 5.72,12.03l-13.83 6.42c-2.28,-4.92 -6.91,-13.04 -9.7,-18.4 -1.11,-2.13 -2.32,-4.16 -5.59,-2.57 -0.56,3.52 -1.03,7.09 -1.53,10.57 -0.26,1.77 -0.51,3.56 -0.76,5.27 -0.15,1.03 -0.45,4.29 -0.93,5.01 -4.62,0.68 -9.5,-0.08 -14.16,-0.57l-0.08 -1.59zm19.88 -13.97c1.68,-0.23 1.75,1.29 3.4,4.3 0.92,1.67 1.81,3.39 2.66,5.07 0.96,1.88 4.96,8.94 5.31,10.1 5.31,-0.98 17.51,-8.34 18.75,-8.76l-10.37 -21.78 1.43 -0.52c1.71,-0.43 3.13,-0.5 4.86,-0.98 1.89,-0.52 4.13,-1.56 5.42,-2.52 3.16,-2.36 4.67,-4.62 6.26,-9.39 1.84,-5.54 3.61,-13.85 0.92,-19.6 -0.86,-1.84 -2.1,-3.68 -3.25,-4.67 -9.67,-8.36 -31.11,-9.85 -44.57,-10.3 -2.27,-0.08 -5.44,-0.35 -7.57,-0.12 -2.93,0.31 -2.94,1.84 -3.09,4.69 -0.91,17.14 -1.91,35.44 -2.52,52.38 -0.19,5.13 -0.11,10.29 -0.26,15.44 -0.1,3.13 -0.28,4.67 2.8,4.99 2.49,0.25 5.05,0.17 7.54,0.39 7.66,0.68 9.45,1.23 10.24,-4.93 0.35,-2.76 1.1,-11.79 2.04,-13.79z"/>
   <path class="fil5" d="M212.69 155.81c2.05,-0.51 6.58,-2.14 9.89,-3.01 18.38,-4.82 40.61,-5.27 59.26,-2.02 3.62,0.63 7.14,1.46 10.56,2.37 3.49,0.94 6.72,2.28 10.03,3.21 0.14,-5.68 0.43,-8.42 -4.02,-10.47 -3.44,-1.59 -8.3,-2.07 -12.46,-2.19 -13.54,-0.37 -29.23,-0.76 -42.78,-0.74 -4.75,0 -9.75,-0.17 -14.41,0.18 -3.48,0.26 -9.42,0.96 -12.26,2.32 -4.1,1.97 -4.43,5.69 -3.81,10.35z"/>
   <path class="fil2" d="M167.16 311.52c0,-21.78 12.09,-42.92 27.16,-55.74l2.84 -2.37c3.24,-2.6 5.56,-4.17 9.2,-6.44 4.13,-2.58 8.84,-4.9 13.79,-6.88 23.31,-9.32 50,-9.28 73.22,0.16 14.18,5.76 26.31,14.67 35.87,26.52 3.08,3.8 5.57,7.65 8.21,12.44 5.7,10.35 8.54,22.44 8.54,35.65 0,16.71 -7.12,33.8 -16.92,45.84l-2.4 2.81c-1.88,2.35 -5.6,5.79 -7.84,7.82 -13.1,11.91 -36.04,22.83 -60.64,22.83 -14.11,0 -26.01,-1.96 -38.27,-7.01 -5.22,-2.15 -9.41,-4.32 -13.86,-7.01 -5.56,-3.37 -6.37,-4.53 -10.52,-7.63 -7.31,-5.45 -15.14,-15.91 -19.74,-24.29 -4.61,-8.4 -8.64,-21.63 -8.64,-32.94l0 -3.76zm90.06 129.75l17.54 0.11c21.59,-0.95 61.38,-3.07 79.03,-9.84 9.24,-2.74 17.23,-7.64 22.93,-12.55 15.28,-13.16 19.09,-31.56 18.63,-51.96 -0.4,-18.37 -3.76,-28.55 -8.21,-44.85 -3.76,-13.81 -7.87,-26.58 -13.23,-39.77 -6.71,-16.53 -14.49,-32.26 -22.55,-47.99 -2.98,-5.83 -6.08,-11.62 -9.03,-17.46 -1.01,-2.02 -1.96,-3.93 -3.09,-5.89 -4.33,-7.49 -8.6,-14.66 -14.04,-21.23 -10.48,-12.63 -23.7,-24.68 -39.8,-30.94 -5.61,-2.18 -25.38,-5.86 -32.27,-6.65 -13.2,1.85 -25.55,5.76 -36.72,14 -13.56,9.99 -26.25,20.26 -34.27,35.61 -1.91,3.64 -4.33,7.63 -6.18,11.35 -1.85,3.71 -4.05,7.61 -6.05,11.28 -2.12,3.87 -4.26,7.33 -6.33,11.19 -1.98,3.71 -4.09,7.59 -6.15,11.38 -5.44,10 -12.39,25.05 -16.69,35.68 -10.11,24.97 -20.89,55.72 -21.97,83.04 -0.37,9.33 0.71,22.84 3.78,31.1 2.02,5.4 5.09,11.07 8.8,15.19 5.12,5.68 8.4,8.65 15.54,12.83 3.4,1.99 7.99,4.07 12.15,5.37 16.06,4.99 45.85,8.86 63.31,9.62l34.87 1.38z"/>
   <path class="fil5" d="M213.6 141.72c2.97,-0.54 4.68,-1.43 9.53,-2.14 6.29,-0.93 10.76,-0.79 16.91,-0.79 10.65,0 21.25,0.17 31.92,0.16 8.69,-0.01 14.12,0.03 22.53,1.49 2.24,0.39 4.77,1 7,1.22 -1.67,-7.88 -8.65,-8.83 -17.08,-9.95 -6.08,-0.81 -28.09,-0.69 -35.82,-0.69 -7.34,0 -24.19,-0.3 -30.45,3.56 -2.07,1.28 -3.88,3.87 -4.54,7.14z"/>
   <path class="fil6 str2" d="M287.61 339.38c-0.43,0.73 -0.62,4.43 -0.73,5.46 -0.49,5.02 -0.99,12.63 -1.66,17.08l-12.47 -0.73c0,-12.26 0.11,-24.35 0.49,-36.52 0.37,-11.88 1.14,-23.54 1.85,-35.32 10.68,-0.17 17.66,-1.14 28.5,2.23 8.3,2.58 13.31,7.53 15.13,16.61 0.95,4.74 0.56,9.56 -1.07,13.75 -0.87,2.2 -2.98,5.8 -4.57,7.33 -3.68,3.56 -6.65,5.78 -12.2,7.62 -4.48,1.49 -8.59,1.74 -13.27,2.49zm-15.59 -52.3l-2.2 56.58 0.06 16.69c0,3.94 2.77,3.33 7.41,3.67 3.22,0.24 7.35,0.72 10.48,0.66l2.39 -22.86c1.99,-0.48 4.18,-0.63 6.22,-1.09 1.98,-0.45 3.83,-0.97 5.63,-1.67 3.73,-1.43 6.76,-3.18 9.53,-5.28 5.73,-4.36 10.92,-9.44 10.92,-19.54 0,-4.17 -1.48,-9.81 -3.01,-13.07 -5.99,-12.83 -22.85,-14.85 -36.22,-14.85 -2.49,0 -9.04,0.2 -11.21,0.76z"/>
   <path class="fil5" d="M216.34 130.3c4.64,-1.22 4.95,-1.92 11.01,-2.77 10.65,-1.51 37.81,-0.72 48.17,-0.59 5.84,0.08 12.73,0.64 18.38,2.17 1.69,0.45 3.87,1.33 5.32,1.62 -0.22,-7.5 -8.62,-8.25 -14,-8.78 -15.97,-1.55 -38.58,-1.41 -54.64,-0.44 -3.22,0.19 -6.69,1.01 -9.49,2.03 -2.7,0.99 -5.02,3.12 -4.75,6.76z"/>
   <path class="fil4 str1" d="M297.77 120.6c4.77,3.38 3.65,3.42 6.1,7.23 1.6,-0.54 4.18,-1.92 5.8,-2.73 4.16,-2.06 7.36,-3.92 10.7,-6.83 0.76,-0.66 1.45,-1.48 2.17,-2.2 0.72,-0.71 1.49,-1.36 2.23,-2.16 1.45,-1.59 6.57,-7.91 5.06,-11.75 -1.49,-3.8 -8.94,-3.58 -13.48,-4.1 -0.65,4.54 -4.9,10.82 -7.13,13.44 -1.59,1.87 -3.16,3.49 -5.16,5.07 -1.6,1.27 -4.14,3.14 -6.29,4.03z"/>
   <path class="fil3 str0" d="M216.21 121.22c-0.23,-0.65 -2.22,-1.56 -3.33,-2.3 -2.23,-1.48 -4.14,-3.15 -6.02,-5.02 -3.75,-3.73 -6.87,-8.1 -9.33,-12.77 -1.23,-2.36 -0.94,-3 -2.13,-3.26 -1.78,-0.28 -5.43,0.31 -7.01,0.9 -2.25,0.86 -3.05,2.45 -2.36,5.28 0.95,3.86 2.85,7.88 5.57,10.5l4.11 3.82c3.76,3.21 10.96,7.27 15.73,8.66 1.28,-2.72 2.82,-4.15 4.77,-5.81z"/>
   <path class="fil1" d="M223.76 294.88c5.68,-0.01 13.1,-3.16 14.91,-7.25 2.92,-6.63 -9.41,-7.64 -12.67,-6.82 -0.91,0.23 -0.72,0.08 -0.89,0.71l-1.35 13.36z"/>
   <path class="fil6 str2" d="M223.76 294.88l1.35 -13.36c0.17,-0.63 -0.02,-0.48 0.89,-0.71 3.26,-0.82 15.59,0.19 12.67,6.82 -1.81,4.09 -9.23,7.24 -14.91,7.25zm-1.15 -17.06c-0.46,2.78 -2.18,16.47 -1.43,18.33 1.45,3.59 11.87,-0.11 15.29,-2.39 7.2,-4.8 9.08,-13.68 -4.57,-15.22 -2.7,-0.31 -6.64,-0.72 -9.29,-0.72z"/>
   <path class="fil6 str2" d="M290.28 318.51l0.69 -13.3c5.11,-0.39 10.95,1.31 10.04,6.77 -0.73,4.31 -5.63,6.45 -10.73,6.53zm-1.99 -15.28c-0.19,2.06 -1.15,13.69 -0.99,14.76 0,4.45 4.9,3.83 8.3,2.77 6.78,-2.11 10.98,-9.82 6.43,-14.88 -2,-2.23 -5.74,-3.69 -8.99,-3.69 -2.03,0 -3.03,0.41 -4.75,1.04z"/>
   <path class="fil1" d="M290.28 318.51c5.1,-0.08 10,-2.22 10.73,-6.53 0.91,-5.46 -4.93,-7.16 -10.04,-6.77l-0.69 13.3z"/>
   <path class="fil6 str2" d="M220.83 437.74c-11.48,-0.64 -23.18,-1.07 -34.63,-1.82 -21.62,-1.42 -40.47,-2.23 -58,-14.86 -16.9,-12.18 -22.15,-29.5 -22.14,-50.69 0.01,-21.5 5.65,-42.3 12.08,-60.96 11.2,-32.47 18.31,-47.07 33.7,-75.44l6.51 -11.65c2.25,-3.88 4.3,-7.94 6.44,-11.91 4.7,-8.7 8.42,-16.04 15.04,-23.37l10.32 -10.33c9.18,-7.89 19.23,-15.65 31.06,-19.24 11.83,-3.59 20.23,-3.46 32.13,-4.32 3.99,-0.58 13.29,0.13 17.48,0.52 5.46,0.52 10.5,1.3 15.76,2.39 15.49,3.24 24.47,10.17 35.17,18.86 1.84,1.5 7.76,7.22 9.2,8.96 3.14,3.78 4.83,5.38 8.2,9.96 2.5,3.42 4.96,7.04 7.27,10.88 6.73,11.15 18.51,34.92 24.74,47.47 14.92,30.07 20.72,47.32 29.44,79.06 2.75,10 4.75,19.89 5.42,30.77 0.64,10.45 -0.04,23.36 -2.85,32.92 -1.44,4.87 -3.37,8.65 -5.67,12.49 -1.78,2.97 -5.68,7.81 -8.14,10.01 -15.03,13.49 -28.2,16.45 -53.7,18.49 -11.47,0.91 -22.92,1.25 -34.46,1.7 -5.72,0.22 -11.59,0.46 -17.33,0.69 -22.73,0.92 -39.69,0.74 -63.04,-0.58zm-8.14 -281.93c-0.62,-4.66 -0.29,-8.38 3.81,-10.35 2.84,-1.36 8.78,-2.06 12.26,-2.32 4.66,-0.35 9.66,-0.18 14.41,-0.18 13.55,-0.02 29.24,0.37 42.78,0.74 4.16,0.12 9.02,0.6 12.46,2.19 4.45,2.05 4.16,4.79 4.02,10.47 -3.31,-0.93 -6.54,-2.27 -10.03,-3.21 -3.42,-0.91 -6.94,-1.74 -10.56,-2.37 -18.65,-3.25 -40.88,-2.8 -59.26,2.02 -3.31,0.87 -7.84,2.5 -9.89,3.01zm0.91 -14.09c0.66,-3.27 2.47,-5.86 4.54,-7.14 6.26,-3.86 23.11,-3.56 30.45,-3.56 7.73,0 29.74,-0.12 35.82,0.69 8.43,1.12 15.41,2.07 17.08,9.95 -2.23,-0.22 -4.76,-0.83 -7,-1.22 -8.41,-1.46 -13.84,-1.5 -22.53,-1.49 -10.67,0.01 -21.27,-0.16 -31.92,-0.16 -6.15,0 -10.62,-0.14 -16.91,0.79 -4.85,0.71 -6.56,1.6 -9.53,2.14zm2.74 -11.42c-0.27,-3.64 2.05,-5.77 4.75,-6.76 2.8,-1.02 6.27,-1.84 9.49,-2.03 16.06,-0.97 38.67,-1.11 54.64,0.44 5.38,0.53 13.78,1.28 14,8.78 -1.45,-0.29 -3.63,-1.17 -5.32,-1.62 -5.65,-1.53 -12.54,-2.09 -18.38,-2.17 -10.36,-0.13 -37.52,-0.92 -48.17,0.59 -6.06,0.85 -6.37,1.55 -11.01,2.77zm-20.94 -32.43c1.39,-0.69 7.97,0.34 17.07,-4.43 4.98,-2.61 8.29,-5.7 12.33,-9.17 2,-1.71 3.91,-3.31 5.99,-4.87 8.43,-6.33 15.05,-6.64 25.31,-6.61 6.74,0.02 13.72,-0.37 19.72,1.78 2.56,0.92 5.15,2.2 7.08,3.56 2.15,1.5 7.16,5.3 8.98,7.09l2.81 2.61c6.17,5.64 12.68,8.68 21.66,10.23 4.54,0.52 11.99,0.3 13.48,4.1 1.51,3.84 -3.61,10.16 -5.06,11.75 -0.74,0.8 -1.51,1.45 -2.23,2.16 -0.72,0.72 -1.41,1.54 -2.17,2.2 -3.34,2.91 -6.54,4.77 -10.7,6.83 -1.62,0.81 -4.2,2.19 -5.8,2.73 -2.45,-3.81 -1.33,-3.85 -6.1,-7.23 -1.3,-0.45 -2.35,-1.14 -3.99,-1.6 -2.73,-0.77 -12.01,-1.71 -14.93,-1.95 -11.69,-0.98 -31.67,-0.18 -44.02,0.14 -6.92,0.19 -13.68,0.72 -18.62,4.03 -1.95,1.66 -3.49,3.09 -4.77,5.81 -4.77,-1.39 -11.97,-5.45 -15.73,-8.66l-4.11 -3.82c-2.72,-2.62 -4.62,-6.64 -5.57,-10.5 -0.69,-2.83 0.11,-4.42 2.36,-5.28 1.58,-0.59 5.23,-1.18 7.01,-0.9zm-14.42 4.77c0,6.41 3.16,11.01 7.15,14.97 4.86,4.82 11.03,9.2 17.39,11.82 1.55,0.64 3.49,1.84 5.09,2.21 0,2.45 0.61,2.59 -0.34,4.66 -1.57,3.4 -2.19,7.47 -2.16,11.41 0.01,1.22 -0.16,1.54 -0.21,2.5 -0.38,7.68 -1.16,8.66 -6.68,12.32l-3.28 2.35c-0.58,0.44 -1,0.7 -1.58,1.13 -3.32,2.5 -10.5,8.21 -13.35,11.07 -2.75,2.77 -5.5,5.49 -8.02,8.46 -0.44,0.52 -0.81,0.96 -1.23,1.49 -3.23,4.12 -6.16,8.4 -8.71,12.99l-21.28 38.82c-4.26,7.61 -8.12,15.49 -11.9,23.36 -5.13,10.69 -9.33,21.67 -13.58,32.75 -9.02,23.5 -17.23,50.37 -17.23,75.63 0,15.31 3.55,31.94 13,43.55 2.17,2.66 4.35,4.98 6.87,7.32 7.36,6.81 18.7,11.8 28.37,14.2 5.79,1.43 11.77,2.46 17.87,3.21 0.96,0.11 2.08,0.31 3.17,0.37l6.47 0.63c2.35,0.11 4.39,0.44 6.67,0.42l13.58 0.62c1.25,0.01 1.85,0.23 3.33,0.21l13.53 0.66c20.33,2.28 43.14,2.45 63.47,1.43 2.16,0.02 4.6,-0.41 6.67,-0.43 4.51,-0.04 8.83,-0.6 13.37,-0.61l20.03 -0.84c1.46,0.01 2.08,-0.2 3.33,-0.22 1.24,-0.01 2.26,0.07 3.43,-0.11 1.9,-0.29 4.6,-0.19 6.59,-0.29 0.88,-0.05 0.69,-0.14 1.47,-0.2 2.58,-0.21 5.61,-0.25 8.19,-0.58l9.66 -0.98c4.43,-0.62 8.07,-1.11 12.07,-2.12 12.33,-3.13 22.87,-8.55 31.58,-17.25l2.51 -2.71c0.38,-0.44 0.53,-0.54 0.88,-1 4.46,-5.77 7.62,-10.62 10.04,-17.92 3.34,-10.05 3.73,-19.47 3.73,-30.91 0,-6.39 -0.83,-12.2 -1.46,-17.95 -1.21,-11.01 -4.66,-20.83 -7.63,-31.18 -0.76,-2.64 -1.39,-5.06 -2.2,-7.6 -0.77,-2.41 -1.69,-4.94 -2.39,-7.42 -1.98,-6.99 -7.69,-21.72 -10.59,-28.22l-12.31 -26.71 -11.41 -22.4c-0.58,-1.16 -1.13,-2.05 -1.74,-3.27 -4.37,-8.77 -8.71,-17.21 -13.95,-25.07 -2.81,-4.22 -5.89,-8.74 -9.3,-12.41l-8.35 -8.97c-3.7,-3.75 -9.03,-7.92 -13.32,-10.88l-8.64 -6.18c0,-6.04 -1.09,-13.85 -2.14,-19.56 -1.51,-8.18 -2.12,-6 8.61,-11.32 3.52,-1.75 6.74,-4.06 9.78,-6.5 4.75,-3.84 10.67,-10.09 10.67,-16.67 0,-2.78 -0.19,-4.94 -1.94,-7.04 -5.05,-6.06 -18.01,-0.33 -31.24,-10.28l-7.57 -6.42c-3.42,-3.25 -7.94,-6.66 -12.12,-8.74 -3.47,-1.74 -6.13,-2.61 -10.68,-3.3 -2.21,-0.33 -4.32,-0.1 -6.54,-0.35l-13.59 -0.39c-1,0.06 -1.89,0.15 -3.13,0.21 -0.91,0.05 -2.26,0.27 -3.13,0.42 -3.95,0.67 -7.58,1.8 -10.65,3.34 -5.29,2.66 -9.48,6.53 -14.01,10.19 -1.91,1.54 -3.66,3.28 -5.66,4.78l-3.07 1.93c-0.5,0.26 -0.69,0.44 -1.2,0.68 -13.28,6.39 -20.66,0.9 -27.24,7.61 -1.06,1.08 -1.82,3.22 -1.82,5.28z"/>
  </g>
 </g>
</svg>
